<svg width="190" height="32" viewBox="0 0 190 32" fill="none" xmlns="http://www.w3.org/2000/svg">
<path d="M85.8566 4.14628C85.3805 4.63148 84.8178 4.85203 84.1686 4.85203C83.4761 4.85203 82.9134 4.63148 82.4806 4.14628C82.0045 3.70518 81.7881 3.13176 81.7881 2.42601C81.7881 1.76437 82.0045 1.19095 82.4806 0.705747C82.9134 0.264654 83.4761 0 84.1686 0C84.8178 0 85.3805 0.264654 85.8566 0.705747C86.2894 1.19095 86.5491 1.76437 86.5491 2.42601C86.5491 3.13176 86.2894 3.70518 85.8566 4.14628Z" fill="#040101"/>
<path d="M4.30786 27.6831C1.44062 24.8562 0 21.4835 0 17.5511C0 13.7166 1.44062 10.428 4.30786 7.65707C7.1751 4.88618 10.5738 3.50073 14.5041 3.50073C18.2245 3.50073 21.4694 4.88618 24.2527 7.65707C27.022 10.428 28.4067 13.7306 28.4067 17.5511C28.4067 21.4835 27.05 24.8562 24.3226 27.6831C21.6092 30.4959 18.3364 31.9094 14.5041 31.9094C10.5738 31.9094 7.1751 30.4959 4.30786 27.6831Z" fill="#040101"/>
<path d="M48.8324 31.9156C48.7337 31.9156 48.6208 31.8871 48.5362 31.83C47.6193 31.2307 46.6459 30.5743 45.4892 29.7323C42.1037 27.3064 39.3247 24.9661 36.9831 22.5973C33.7809 19.358 32.2998 16.0046 32.4408 12.3515C32.4408 8.09898 35.5865 4.46013 39.7761 3.88933C39.7761 3.88933 40.1147 3.84652 40.2134 3.83225C40.425 3.81798 40.6507 3.80371 40.8764 3.80371C42.3435 3.77517 43.7964 4.06057 45.0942 4.6171C46.6318 5.27352 47.7603 6.31523 48.8183 7.37121C49.8763 6.31523 51.0048 5.27352 52.5424 4.6171C53.8684 4.06057 55.3213 3.78944 56.7461 3.80371C57 3.80371 57.2257 3.81798 57.4514 3.83225C57.536 3.84652 57.8746 3.87506 57.8746 3.87506C62.0642 4.44586 65.2099 8.08471 65.2099 12.3515C65.3509 16.0046 63.8557 19.358 60.6676 22.5973C58.326 24.9804 55.547 27.3064 52.1615 29.7323C51.0048 30.56 50.0315 31.2307 49.1145 31.83C49.0299 31.8871 48.9312 31.9156 48.8324 31.9156Z" fill="#040101"/>
<path d="M180.688 25.0951V11.6828H177.304V8.46554H180.688V2.07275H184.407V8.46554H189.379V11.6828H184.407V24.5102C184.407 26.8082 185.535 27.2261 187.457 27.2261C188.334 27.2261 188.961 27.1843 189.839 26.9754V30.1927C188.878 30.4016 187.791 30.5269 186.538 30.5269C182.819 30.5269 180.688 29.2734 180.688 25.0951Z" fill="#040101"/>
<path d="M164.853 30.6947C160.883 30.6947 157.666 28.3549 157.666 24.4273C157.666 20.0818 161.05 18.2852 165.939 17.2824L171.245 16.196V15.2768C171.245 12.7698 169.867 11.3492 166.942 11.3492C164.184 11.3492 162.555 12.6445 161.886 15.0679L158.335 14.1487C159.379 10.5971 162.596 8.04834 167.067 8.04834C171.956 8.04834 174.964 10.43 174.964 15.1097V25.7643C174.964 27.1849 175.842 27.6445 177.304 27.3103V30.3187C173.961 30.7365 172.039 29.9426 171.58 27.8535C170.243 29.5666 167.819 30.6947 164.853 30.6947ZM171.245 22.8813V19.1208L166.984 20.0401C163.641 20.7086 161.385 21.6278 161.385 24.2601C161.385 26.3911 162.931 27.6445 165.312 27.6445C168.53 27.6445 171.245 25.6807 171.245 22.8813Z" fill="#040101"/>
<path d="M146.219 30.7783C140.161 30.7783 135.982 26.1404 135.982 19.4133C135.982 12.8952 140.119 8.04834 146.052 8.04834C152.152 8.04834 155.37 12.6862 155.37 18.7448V19.9983H139.576C139.785 24.5944 142.417 27.5192 146.219 27.5192C149.144 27.5192 151.233 25.9314 151.902 23.3409L155.203 24.5108C153.866 28.3966 150.565 30.7783 146.219 30.7783ZM146.01 11.2656C142.835 11.2656 140.453 13.3966 139.785 17.1152H151.567C151.484 14.0233 149.813 11.2656 146.01 11.2656Z" fill="#040101"/>
<path d="M112.682 30.3181V2.07275H123.106C129.086 2.07275 132.272 4.70846 132.272 9.42912C132.272 13.0483 130.069 14.8579 127.906 15.6053C131.092 16.4708 133.217 18.9491 133.217 22.529C133.217 27.4463 129.637 30.3181 123.933 30.3181H112.682ZM116.34 14.1891H122.792C126.568 14.1891 128.653 12.7336 128.653 9.74383C128.653 6.71474 126.568 5.2592 122.792 5.2592H116.34V14.1891ZM116.34 17.4149V27.1316H123.775C127.552 27.1316 129.597 25.1647 129.597 22.2536C129.597 19.3819 127.552 17.4149 123.775 17.4149H116.34Z" fill="#040101"/>
<path d="M90.5908 30.3187V8.46617H94.3513V11.4328C95.6048 9.63609 97.7775 8.04834 100.869 8.04834C105.507 8.04834 108.14 11.2656 108.14 15.9035V30.3187H104.379V16.9063C104.379 13.8562 103.084 11.5581 99.8248 11.5581C97.109 11.5581 94.3513 13.6473 94.3513 17.2824V30.3187H90.5908Z" fill="#040101"/>
<path d="M86.0505 8.46704V30.3195H82.29V8.46704H86.0505Z" fill="#040101"/>
</svg>
