<svg width="103" height="113" viewBox="0 0 103 113" fill="none" xmlns="http://www.w3.org/2000/svg"
    className="h-3 w-auto shrink-0">
    <title>Fieldtrip</title>
    <path
        d="M63.5362 0.786133C65.4331 0.345694 67.4745 0.353986 68.9268 0.576311C70.4309 0.782441 71.9121 1.28838 72.7496 1.66177C73.6357 2.04753 74.3695 2.4656 74.9887 2.8703C76.1502 3.64396 76.7124 4.16746 77.2947 4.72476C79.122 6.60129 79.3667 7.25728 79.8304 7.9609C80.5586 9.20738 80.8163 9.86223 81.0859 10.4887C81.5736 11.6732 81.8328 12.4718 82.0191 12.9377C83.2181 16.0389 84.2164 18.7033 85.0393 21.3453C86.2822 21.215 87.6583 21.1696 89.1205 21.2342C89.904 21.2596 90.8579 21.3316 92.1156 21.6295C92.9287 21.8255 93.8707 22.1219 94.9246 22.6238C95.4505 22.8749 96.0028 23.1783 96.5661 23.5467C97.21 23.9661 97.9326 24.5222 98.5944 25.1581C99.928 26.4122 101.14 28.1907 101.815 29.838C102.522 31.5111 102.825 33.1701 102.895 34.56C102.998 36.9536 102.576 38.4639 102.282 39.4665C102.007 40.3561 101.716 41.0246 101.453 41.5678C101.242 42.0008 101.042 42.3591 100.857 42.6725C100.476 43.3082 100.263 43.6036 100.006 43.9609C99.1301 45.1369 98.7047 45.5526 98.2564 46.043C97.4149 46.9327 96.7898 47.5369 96.2007 48.1522C96.1605 48.1943 96.7182 48.0413 96.2326 48.5886C95.4165 49.5073 94.927 49.4128 94.4803 49.7639C94.3122 49.8965 94.0302 50.1634 93.7205 50.4589C93.9858 51.4427 94.2452 52.4303 94.496 53.4262C93.0043 51.8791 94.4671 54.9645 94.4617 55.1288C94.3979 55.9439 93.3954 52.6129 93.5937 53.9851C94.1362 55.8296 94.6775 57.6731 95.2177 59.5155C94.9201 57.9596 96.6043 61.298 96.4588 62.0351C97.0041 61.6722 97.534 65.8727 98.0215 68.9281C98.2449 70.3273 98.4672 71.5151 98.6692 71.8889C98.8078 72.1507 98.7404 70.2238 99.7035 74.4781C99.8084 74.9438 99.4961 74.8396 99.5863 75.0708C99.6449 75.2258 100.717 75.8415 100.517 76.9356C100.48 77.1349 100.171 76.7101 100.067 76.8458C99.973 77.0445 100.026 77.4395 100.886 80.3894C100.937 79.7968 101.085 79.8491 101.297 80.3624C101.402 80.6231 101.529 80.9975 101.699 81.7471C101.785 82.1648 101.889 82.574 102.008 83.7024C102.055 84.3353 102.156 85.0077 102.013 86.7294C101.921 87.6239 101.759 88.8169 101.177 90.4438C100.609 92.1007 99.3406 94.2192 98.0154 95.5803C96.9278 96.7433 95.5858 97.7901 94.2036 98.5607C92.8839 99.3046 91.4791 99.8263 90.254 100.133C89.1099 100.423 88.0396 100.564 87.0693 100.619C86.2195 100.666 85.4438 100.648 84.7321 100.595C82.1068 100.37 80.6038 99.8415 79.4632 99.4607C77.1791 98.6406 75.9725 97.9451 75.419 97.6316C75.7541 97.9181 76.1546 98.2284 76.5572 98.5295C74.5187 97.2859 74.1866 97.4071 73.7613 97.1879C72.1266 96.3016 70.3201 94.9541 69.0249 94.2466C67.5439 93.4352 67.2561 93.9038 65.7003 92.7402C66.0149 93.067 66.3719 93.4176 66.7035 93.7519C65.54 93.0383 64.44 92.3499 63.3453 91.6609C66.2912 92.5708 62.805 91.299 62.5927 91.1878C62.2558 91.0164 62.8744 91.0401 62.3133 90.7465C62.2531 90.7178 62.1937 91.0096 61.3317 90.5278C59.5732 89.5447 60.0082 89.3939 59.2949 88.9689C59.2263 88.9297 59.3344 89.29 58.0476 88.5849C57.3796 88.2201 56.9364 87.9709 56.6618 87.8107C56.6239 87.8161 56.5813 87.821 56.5336 87.8272C56.4744 87.8013 56.4142 87.7759 56.3529 87.7511C56.3732 87.7215 56.3936 87.6919 56.4139 87.6623C56.3609 87.6287 56.3263 87.6046 56.3073 87.5889C56.2671 87.6217 56.2269 87.6543 56.1866 87.6863C56.0566 87.6371 55.9221 87.5902 55.7828 87.5464C55.7873 87.5421 55.7927 87.538 55.7975 87.5327C56.0727 87.2256 56.3236 86.9434 56.5521 86.6851C56.3082 86.7044 56.2333 86.6903 56.2264 86.6282C55.9837 86.9075 55.744 87.1917 55.5198 87.4689C55.4605 87.4525 55.4004 87.4365 55.3395 87.4212C55.2345 87.3928 55.128 87.3674 55.0203 87.3451C55.2016 87.1289 55.3707 86.9266 55.5212 86.7441C55.5003 86.7417 55.4657 86.6866 55.4255 86.6227C55.2852 86.7639 55.1323 86.9204 54.9702 87.088C54.9374 87.1729 54.9075 87.2494 54.8797 87.318C54.8423 87.3113 54.8049 87.3049 54.7672 87.2988C54.7049 87.3639 54.6416 87.4302 54.5773 87.4977C54.6478 87.5084 54.7182 87.5206 54.7885 87.534C54.7525 87.6159 54.7226 87.6805 54.6959 87.7305C54.7484 87.6683 54.7999 87.6066 54.8509 87.546C54.8653 87.549 54.88 87.5515 54.8944 87.5546C55.0567 87.5867 55.2134 87.6228 55.3648 87.6623C55.1596 87.9216 54.9708 88.172 54.8094 88.4031C54.6181 88.4809 54.3127 88.7348 53.9561 89.0775C53.9141 89.2705 53.8734 89.3617 53.8405 89.1903C53.6355 89.3919 53.4165 89.6184 53.1946 89.8544C53.1767 90.0318 53.1387 90.031 53.0921 89.9641C53.0098 90.0524 52.9273 90.1417 52.8452 90.2312C52.8436 90.4474 52.8417 90.6378 52.8319 90.645C52.6804 90.7411 52.5722 90.7221 52.4976 90.6142C51.744 91.4501 51.0958 92.2064 51.0227 92.2345C50.8057 92.3124 51.0921 91.552 50.2327 92.1069C50.1866 92.1381 49.9275 92.4242 49.5762 92.8139C49.5442 92.9283 49.5016 93.0136 49.4452 93.0518C49.4357 93.0582 49.4258 93.0358 49.4157 92.9915C48.7848 93.6909 47.9428 94.6195 47.456 95.0599C47.0688 95.4123 46.9066 95.4619 47.2445 94.8651C47.2489 94.8571 47.2536 94.8488 47.2582 94.8405C47.4211 94.5506 48.5899 93.3375 49.3592 92.5262C49.3518 92.4382 49.3446 92.3444 49.3386 92.2492C49.1327 92.4057 48.9295 92.5951 48.7307 92.8053C48.7266 92.8363 48.7226 92.8649 48.7174 92.8903C48.7019 92.8926 48.6875 92.8835 48.6742 92.865C48.1322 93.4514 47.6281 94.1879 47.216 94.8391C46.7013 95.6451 46.3442 96.3011 46.2118 96.4265C44.9466 97.6102 47.9606 93.5158 45.2491 96.3096C43.1435 98.4692 45.4642 96.7583 44.8387 97.7646C44.5013 98.3201 41.6999 100.433 42.3164 100.884C41.5525 101.803 41.7441 101.018 41.6211 101.105C41.5015 101.196 40.0371 103.044 39.3679 103.488C39.2877 103.541 39.2122 103.054 39.1214 103.1C38.951 103.2 37.3682 104.892 37.3143 104.986C37.2869 105.045 37.9298 104.899 37.8244 105.121C37.709 105.378 36.0033 106.907 35.9778 107.06C35.9546 107.297 37.9195 105.269 37.8505 105.87C36.8601 106.709 35.4708 108.361 35.0669 109.148C35.1557 108.948 36.0676 108.089 36.4102 107.808C36.6426 108.377 34.6682 110.178 35.0371 109.23C34.7772 109.794 35.1513 109.626 35.0676 110.01C35.0431 110.11 34.4605 110.654 34.4172 110.826C34.4132 110.856 35.1634 110.465 35.1197 110.66C35.0217 111.032 33.2769 112.543 33.1168 112.616C32.6269 112.85 33.8658 111.476 33.8306 111.186C33.8158 111.149 32.3325 111.858 32.2888 111.842C31.9193 111.576 33.4387 110.634 33.0232 110.471C32.641 110.702 32.2572 110.935 31.8842 111.159C32.8094 109.778 35.45 107.669 35.7869 106.7C33.8394 108.722 31.8777 110.431 31.1934 109.659C30.8989 109.336 31.5329 108.417 31.4296 108.361C31.0376 108.179 30.2202 109.499 30.1659 109.522C30.1158 109.535 30.0843 109.531 30.0689 109.514L30.0627 109.505C29.955 109.295 31.3831 107.783 31.4022 107.625C31.4111 107.363 30.1713 107.435 30.0579 107.305C30.0581 107.259 31.0884 106.079 30.4971 106.209C29.8943 106.346 28.8981 107.236 28.8422 107.244C28.5288 107.282 30.1639 105.584 30.1518 105.449C30.1409 105.387 28.974 105.992 28.8816 105.947C28.7948 105.896 29.369 105.095 29.4524 104.611C29.5132 104.252 28.7797 104.683 28.8651 104.558C28.9249 104.476 30.6046 102.95 30.662 102.837C30.745 102.68 30.1688 102.847 30.1806 102.744C30.197 102.599 30.8018 102.168 30.6644 102.16C30.5581 102.167 27.8433 103.391 27.6936 103.188C27.4348 102.855 30.287 101.573 27.1211 102.199C27.099 102.204 26.6818 102.741 26.6599 102.747C26.1481 102.795 27.4261 101.005 25.532 102.827C28.7952 99.1571 25.5581 101.949 25.6163 100.937C25.643 100.547 26.9503 99.2012 26.9263 99.1638C26.5588 99.0315 26.3025 99.6318 26.0373 99.6431C25.8943 99.6475 26.8704 98.2502 26.4326 98.3293C26.2112 98.3711 24.9343 99.5948 24.8603 99.6273C24.1839 99.9349 24.6647 99.1718 24.4414 99.1576C24.2928 99.1476 23.4879 99.8631 23.4509 99.8704C23.3939 99.8674 24.1896 98.5639 24.3066 98.2501C24.3969 98.0095 23.6367 98.4509 23.72 98.306C24.2353 97.4296 26.2341 96.6452 24.067 97.1523C23.9348 97.1829 23.4056 97.7004 23.3779 97.7073C22.829 97.7864 23.8261 96.8456 23.8273 96.4978C23.8372 95.8957 22.5722 97.3831 23.5524 96.0692C22.472 96.6719 21.9707 97.136 20.9227 98.1911C23.7948 95.2983 23.9853 93.5795 20.7702 96.5403C21.8395 95.5983 21.2831 95.2375 21.5824 94.9505C21.7766 94.7702 23.6299 93.9182 22.0089 93.4763C21.8096 93.4199 21.0884 94.3885 21.1161 93.8681C23.245 92.0278 21.0177 93.6487 20.9694 93.6227C20.4871 92.9924 25.7669 88.8176 26.5746 87.772C27.4721 86.6792 27.8715 85.2885 28.0828 85.0631C28.7885 84.3125 28.4499 85.1634 28.6968 85.0813C28.942 85.003 30.484 82.4038 30.6068 82.3204C31.0982 81.9989 30.9973 82.6944 31.0525 82.6646C31.3141 82.5237 31.8474 81.9621 32.4695 81.2603C33.4069 80.2025 34.5115 78.8582 35.0168 78.3882C34.7961 78.2472 33.2707 79.8831 33.9084 78.5717C34.6619 77.0306 35.5587 77.7374 35.6268 77.7375C36.156 77.1556 36.6847 76.5727 37.2138 75.9897C36.7772 75.6821 36.69 75.5252 37.3945 75.7908C37.4752 75.7019 37.5559 75.613 37.6365 75.5241C37.1542 74.9761 36.8246 74.4061 36.068 74.2261C35.4194 74.0628 37.5861 76.3708 34.8317 75.0342C33.8678 76.1259 32.2425 77.7694 32.1448 77.8119C32.057 77.8553 31.9922 77.8766 31.9484 77.8825C31.8891 78.1274 31.1485 78.9666 30.832 78.8562C31.082 78.6219 31.6785 77.9319 31.7773 77.8743C31.8192 77.8501 31.8528 77.8338 31.8791 77.8256C31.9303 77.4916 33.5301 75.8593 34.5372 74.8871C34.1068 74.6661 33.5759 74.3712 32.9241 73.9847C32.9986 73.6742 34.0277 74.2906 34.7103 74.7205C35.0358 74.4098 35.273 74.1946 35.3295 74.1589C35.3763 74.1304 35.4145 74.1102 35.4447 74.0972C35.4451 73.9758 35.44 73.8863 35.4276 73.8647C35.2501 73.6015 29.2945 70.9218 28.3762 69.7533C28.5381 70.5543 24.0713 67.3141 23.4773 67.1346C23.3125 67.0913 23.6366 67.7223 23.4684 67.6633C22.4232 67.292 20.3255 65.1817 19.213 64.4176C17.9553 63.5591 17.9502 63.9294 17.8759 63.88C17.3223 63.4847 17.8911 63.6115 17.5491 63.3804C17.0441 63.059 13.539 60.5282 13.3486 60.4237C13.2881 60.3969 13.66 61.1158 12.8391 60.5986C12.6978 60.5015 13.0375 60.2558 10.6562 58.6625C7.76487 56.6865 12.2489 60.567 10.8317 60.0305C9.44491 58.165 9.11847 58.6899 8.65292 58.2583C8.49574 58.1064 7.60792 56.7181 6.15116 55.4751C7.2404 56.3219 8.26958 57.061 9.29062 57.7673C8.40007 56.9445 6.45828 55.4594 5.64615 54.5556C5.25768 54.1223 5.93224 54.1663 4.92789 53.2136C4.83283 53.1251 4.32451 52.9963 4.28333 53.251C4.25536 53.5155 4.66266 54.1552 6.01163 55.0445C5.94521 55.5007 4.99918 54.3191 4.28813 53.7615C4.24155 53.7272 4.00099 53.722 3.69261 53.5685C3.54241 53.4955 3.36576 53.3765 3.15468 53.1571C2.95594 52.9471 2.73405 52.6689 2.30305 51.9863C2.1585 51.759 2.81698 52.2162 3.11319 52.1906C3.27846 52.2007 3.40032 52.1553 3.39296 51.99C3.35703 51.7764 3.35672 51.7141 2.58041 50.5957C2.01093 49.7612 1.30901 48.706 0.662523 46.7695C-0.0780236 44.6083 -0.449558 40.9918 0.924458 37.5586C1.61608 35.8164 2.40759 34.6687 3.24553 33.6642C3.66415 33.1695 4.09001 32.7359 4.50687 32.3562C4.85332 32.0406 5.17968 31.7731 5.50455 31.5265C6.88195 30.5054 7.72222 30.1204 8.53635 29.7406C11.3726 28.5488 12.383 28.4174 13.726 27.9509C13.9727 27.8722 13.0624 27.7647 13.3019 27.6818C13.5626 27.6 15.2368 27.5026 15.3803 27.4624C15.5581 27.4087 14.7661 27.2315 14.9743 27.16C16.0391 26.7926 17.3849 27.6991 15.3182 27.8056C16.0407 27.8605 16.7271 27.9321 17.3506 28.013C16.6208 27.2996 18.3371 27.7262 19.1276 27.6595C24.2086 27.2335 20.7742 26.9228 21.6348 26.619C22.9828 26.1382 22.02 27.4942 24.0015 27.0033C24.1706 26.9576 21.7723 26.5232 26.4426 26.6025C25.7653 26.6589 25.08 26.7148 24.3831 26.7709C24.8339 27.4882 26.8551 26.5968 27.0216 26.5765C28.8196 26.379 27.6201 26.7137 30.2646 26.1819C30.505 26.1337 31.0206 26.2858 31.5277 26.1633C33.5933 25.6611 28.7511 26.104 28.5857 25.8071C28.5316 25.6707 33.748 25.3909 33.9262 25.4389C33.9561 25.4486 33.9804 25.4582 33.9993 25.4674C34.0756 25.5025 34.0691 25.5335 34.0058 25.5623C33.6696 25.7223 31.6916 25.7938 32.1942 26.0735C32.2647 26.1104 32.9977 26.0675 34.0349 25.984C36.5032 25.7888 40.4484 25.3911 41.5203 25.4101C43.3177 25.4446 44.1497 26.3807 44.0742 25.2582C44.6631 26.3188 45.0524 25.531 45.2776 25.5202C45.3695 25.516 45.4583 25.5117 45.5443 25.5078C45.9057 24.4291 46.3789 23.1305 46.9147 21.7944C48.3969 18.0098 50.4597 14.0069 50.566 13.5486C50.2905 13.8277 50.0016 14.1396 49.7288 14.4246C50.2741 13.4504 50.8173 12.5235 51.407 11.556C51.2829 12.0032 51.1637 12.449 51.0518 12.8883C51.6899 11.8018 52.4616 10.2501 53.161 9.26235C53.2728 9.10524 53.2785 9.68645 53.52 9.30314C53.7675 8.91274 53.3717 8.77321 53.6852 8.17243C53.7604 8.02822 53.9422 7.74416 54.1141 7.49737C54.9681 6.22129 55.8169 4.80934 58.6092 2.87887C59.9269 2.009 61.6037 1.21869 63.5362 0.786133ZM39.4824 101.012C38.9309 102.094 34.8055 105.869 34.6102 106.097C34.4809 106.286 36.1345 105.578 33.954 107.131C33.9532 107.132 33.9521 107.132 33.9513 107.133C36.0248 106.514 37.1799 103.853 37.3842 103.678C37.6058 103.492 37.5749 104.102 37.6293 104.064C37.7629 103.974 39.8476 101.808 39.9213 101.683C39.9756 101.595 39.1931 101.572 39.4824 101.012ZM38.3377 106.644C38.4715 106.48 41.3777 103.316 41.1219 104.206C40.9776 104.817 37.7029 107.628 38.3377 106.644ZM41.4346 102.719C41.3364 103.125 38.3516 106.255 38.1577 106.348C36.9638 106.989 41.1997 102.898 41.4346 102.719ZM36.5761 103.051C35.8954 103.727 34.6915 104.648 34.5345 105.251C35.2469 104.584 36.4405 103.656 36.5761 103.051ZM39.0378 104.275C40.1188 103.388 41.8627 100.934 41.5111 102.294C41.3219 102.99 40.7467 102.984 40.6848 103.04C40.1124 103.556 39.0265 104.76 39.0378 104.275ZM41.3523 97.5445C39.5205 98.958 40.2838 99.4454 39.7954 99.9036C39.124 100.527 38.6312 99.9728 38.5982 99.6736C38.4023 100.534 36.1337 102.867 34.7906 104.262C36.1473 103.231 38.2906 101.532 39.4968 100.448C39.8365 100.146 40.0106 99.6713 40.2909 99.4103C40.7544 98.9781 40.5773 99.5862 40.6149 99.5625C40.6156 99.5617 40.6165 99.5609 40.6173 99.5601C41.3019 99.0714 41.5562 97.8657 40.3018 99.0839C40.655 98.5702 41.0058 98.0561 41.3523 97.5445ZM41.6218 103.008C41.9044 102.967 41.9029 103.716 41.3575 103.9C41.1238 103.976 41.1916 103.462 41.6218 103.008ZM39.154 101.807C40.0834 101.142 38.0768 103.212 37.9794 103.261C37.2755 103.626 38.743 102.106 39.154 101.807ZM38.0918 98.2744C37.5315 98.5193 36.5648 100.353 36.38 100.744C38.3086 98.4554 37.9603 99.7018 38.4878 99.4613C39.5801 98.9669 38.2345 98.2121 38.0918 98.2744ZM43.2417 97.8674C42.3131 98.3499 41.1713 100.118 41.6307 99.8172C41.8319 99.6868 43.3175 98.183 43.2417 97.8674ZM37.0146 98.8668C38.0491 98.6866 37.6027 97.2306 36.9022 98.3444C36.8679 98.398 36.9681 98.8707 37.0146 98.8668ZM47.8284 95.4027C48.3384 94.7997 50.8893 91.668 50.7306 92.3819C50.6589 92.6819 49.3353 94.133 47.9878 95.5495C46.8091 96.7894 45.6054 98.0061 45.2676 98.3673C45.5371 97.3203 46.3413 97.0314 47.1852 96.0788C47.4094 95.8245 47.1906 95.7444 47.215 95.7175C47.6111 95.2732 47.491 95.7697 47.7447 95.5001C47.7568 95.4872 47.7855 95.4535 47.8284 95.4027ZM20.3975 96.5684C21.349 96.0684 19.6362 97.7524 19.5109 97.7793C19.1396 97.8224 19.9745 96.7892 20.3975 96.5684ZM45.9993 92.7241C45.8355 92.855 45.6402 93.0262 45.4466 93.2099C44.5684 94.0455 43.7221 95.1274 45.7157 94.1894C42.9594 96.2785 45.1098 95.1496 44.9094 95.6801C44.6927 96.2488 43.1871 97.502 43.5575 97.7032C43.5582 97.7025 43.5589 97.7019 43.5596 97.7012C44.3527 96.8115 45.1272 95.9347 45.9132 95.0414C45.0782 95.181 45.3525 94.7059 45.955 94.249C45.8528 94.136 45.7758 93.9836 45.7665 93.804C45.5377 93.9421 45.3302 94.008 45.1511 93.9693C45.3487 93.7643 45.5223 93.5802 45.6725 93.4176C45.7422 93.3421 45.8058 93.2714 45.8645 93.2061C45.9102 93.0098 45.9555 92.8542 45.9993 92.7241ZM44.0457 94.7856C43.7341 94.9607 41.3359 97.7248 42.5362 96.8187C42.6203 96.7608 44.3012 94.7721 44.0457 94.7856ZM41.3623 95.1223C41.9427 94.2677 39.9441 95.9611 39.8918 96.6195C40.2327 96.2301 41.2037 95.3602 41.3623 95.1223ZM56.1866 87.6863C56.2429 87.7075 56.2984 87.7289 56.3529 87.7511C56.328 87.7874 56.3033 87.8239 56.2785 87.8601C56.3768 87.8482 56.461 87.8366 56.5336 87.8272C57.5733 88.282 58.289 88.8851 58.76 89.3542C59.9958 90.6694 60.1495 91.3421 60.3697 91.8097C60.55 92.2716 60.6154 92.536 60.669 92.7453C60.7666 93.1507 60.7878 93.3289 60.8103 93.477C60.848 93.7545 60.8532 93.8549 60.8607 93.9443C60.8897 94.4349 60.8751 94.3083 60.8782 94.3793C60.8569 94.5876 60.8334 94.4537 60.813 94.4777C60.7302 94.4441 60.6702 94.4624 60.6611 94.4832C60.6611 94.4829 60.6611 94.4822 60.6611 94.4812C60.6602 94.4827 60.6592 94.4862 60.6584 94.4798C60.6582 94.4774 60.658 94.4751 60.6577 94.4644C60.6576 94.4577 60.6577 94.4526 60.6574 94.4246C60.657 94.4055 60.6573 94.4004 60.655 94.3039C60.6541 94.276 60.6533 94.2429 60.6498 94.1654C60.6354 94.0354 60.6764 94.1316 60.56 93.3237C60.4807 93.0297 60.5782 92.864 59.9748 91.4637C59.789 91.0886 59.5478 90.5876 58.916 89.85C58.406 89.2793 57.5073 88.3901 55.9758 87.8495C56.0452 87.7974 56.1157 87.7425 56.1866 87.6863ZM51.4697 92.254C51.4479 93.1706 48.9534 95.2985 50.2338 93.4567C50.353 93.2865 51.1598 92.7896 51.4697 92.254ZM48.1493 89.6309C47.4921 90.3421 47.3016 90.91 47.0727 91.2663C46.7993 91.8614 46.6661 92.2327 46.5921 92.4916C46.5857 92.7109 46.5807 92.928 46.577 93.1334C46.525 93.1852 46.4732 93.2356 46.4217 93.2843C46.3633 93.6233 46.3619 93.7225 46.349 93.8335C46.344 93.8946 46.3412 93.946 46.338 93.9892C46.412 93.9456 46.4881 93.9037 46.5653 93.8644C46.5647 93.9013 46.5639 93.9371 46.5633 93.9717C46.5658 93.9404 46.5689 93.9037 46.5729 93.8603C46.85 93.7199 47.1399 93.6141 47.3912 93.5856C47.4945 93.2082 47.5766 92.8536 47.673 92.483C48.6121 92.7429 48.0918 91.9676 48.5295 91.5368C48.5307 91.4968 48.5327 91.4681 48.5357 91.4541C48.6006 91.1832 48.6549 91.227 48.694 91.4178C48.8012 91.3612 48.9402 91.3175 49.1219 91.2927C49.1225 90.8454 48.9826 90.7553 48.7513 90.8799C48.6142 91.2742 48.5037 91.317 48.4129 91.1422C47.9516 91.5732 47.322 92.3678 46.7035 93.0055C46.7384 92.7387 46.7844 92.3411 47.4941 90.9553C47.6573 90.6891 47.8522 90.3576 48.1815 89.9655C48.1699 89.857 48.1595 89.7449 48.1493 89.6309ZM46.7035 93.0055C46.6928 93.0868 46.6836 93.1561 46.6565 93.2373C46.6083 93.5099 46.596 93.6354 46.5842 93.7389C46.5797 93.7844 46.5761 93.8246 46.5729 93.8603C46.5703 93.8615 46.5679 93.8631 46.5653 93.8644C46.5657 93.8426 46.5663 93.8204 46.5667 93.7979C46.5696 93.6035 46.5726 93.3767 46.577 93.1334C46.619 93.0916 46.6613 93.049 46.7035 93.0055ZM49.9468 91.894C49.8477 91.933 49.7485 91.9817 49.6496 92.0394C49.6503 92.0995 49.6497 92.1596 49.6482 92.219C49.775 92.0837 49.8787 91.9721 49.9468 91.894ZM52.357 89.8921C51.6007 90.7277 51.0243 91.3878 50.9757 91.4854C50.9373 91.5663 51.1076 91.8023 51.1433 91.7799C51.2329 91.7176 51.7433 91.1504 52.4098 90.3896C52.3795 90.2575 52.3629 90.0888 52.357 89.8921ZM56.2771 88.9994C56.6383 89.1852 54.7229 90.9967 54.3219 91.5423C54.4887 90.9096 55.6734 89.7421 56.2771 88.9994ZM23.2006 90.1695C23.8763 90.2032 22.0651 91.5616 22.4573 90.7067C22.4766 90.6734 23.1628 90.1815 23.2006 90.1695ZM46.2153 90.4088C46.0376 90.6119 45.9189 90.7856 45.9245 90.8909C46.0049 90.8185 46.1136 90.7181 46.2376 90.6015C46.2307 90.5399 46.2234 90.4758 46.2153 90.4088ZM47.2815 90.4506C48.0966 90.0321 47.5512 89.2509 47.0854 90.1709C47.0677 90.2067 47.2473 90.4618 47.2815 90.4506ZM49.3441 90.4102C50.3018 89.8138 49.4136 89.5129 48.958 90.0948C48.9545 90.1115 48.9518 90.1283 48.9481 90.1448C48.9334 90.2113 48.9177 90.274 48.9035 90.3337C49.0317 90.3812 49.3079 90.4327 49.3441 90.4102ZM47.5397 89.046C47.4044 89.2174 47.1491 89.4657 46.8807 89.7279C46.8458 89.8159 46.8144 89.9293 46.7871 90.0632C47.1788 89.6602 47.5367 89.2397 47.5397 89.046ZM46.7199 89.8856C46.753 89.8973 46.7989 89.8581 46.8663 89.742C46.8177 89.7895 46.7687 89.8376 46.7199 89.8856ZM52.9762 89.7399C52.9295 89.6412 52.8878 89.5619 52.8634 89.6031C52.8548 89.6203 52.8516 89.7371 52.8494 89.8867C52.8914 89.8382 52.9335 89.7891 52.9762 89.7399ZM26.2177 87.2519C26.5207 87.5246 24.4672 89.2893 24.0831 89.7985C24.3487 89.1013 25.4667 87.9626 26.2177 87.2519ZM53.6321 88.5029C53.6032 88.7619 53.5584 88.9678 53.4946 89.0878C53.471 88.9762 53.4542 88.8476 53.4428 88.7066C53.3444 88.8128 53.2465 88.9192 53.1493 89.0247C53.1795 89.2122 53.1999 89.3651 53.2042 89.4763C53.4014 89.248 53.6027 89.0143 53.8028 88.7806C53.7999 88.7258 53.7964 88.6657 53.7939 88.6003C53.7906 88.5113 53.7876 88.4238 53.7853 88.3377C53.7342 88.3925 53.6833 88.4478 53.6321 88.5029ZM58.0047 86.8058C57.9248 86.9085 57.8625 86.9871 57.821 87.0218C57.7197 87.1052 57.4899 86.9669 57.2471 87.1665C56.6492 87.6605 57.1847 87.7097 56.825 87.7829C57.4066 88.0482 58.2634 88.4654 58.339 88.4933C58.5626 88.5743 57.7447 86.8468 60.9327 89.2058C59.8449 88.411 59.9856 87.9497 59.8623 87.8614C59.7923 87.8118 58.9329 87.3247 58.3051 86.9738C58.2812 87.092 58.2518 87.2155 58.2149 87.3444C58.2002 87.1867 58.1855 87.0383 58.171 86.8987C58.1121 86.8659 58.0565 86.8345 58.0047 86.8058ZM50.0846 88.1268C49.7008 88.3558 49.372 88.5775 49.089 88.7912C49.086 88.8886 49.0823 88.9844 49.0774 89.0786C49.1459 89.0208 49.2175 88.9621 49.2923 88.9027C49.5086 88.72 49.7845 88.5336 50.1059 88.3572C50.1014 88.3009 50.0977 88.2464 50.0929 88.194C50.0907 88.1707 50.088 88.1484 50.0846 88.1268ZM54.5636 87.8872C54.4704 87.8958 54.4476 87.5879 54.1419 87.976C54.1264 87.9938 54.0942 88.2229 54.0558 88.4844C54.2285 88.2821 54.3989 88.0818 54.5636 87.8872ZM55.3916 87.6695C55.5959 87.7235 55.7904 87.784 55.9758 87.8495C55.2807 88.3705 54.7146 88.6311 55.3916 87.6695ZM52.5336 87.3002C51.8446 87.4012 51.1923 87.5866 50.6493 87.8289C50.6646 87.9064 50.6825 87.9854 50.7031 88.0658C51.2403 87.8334 51.857 87.6403 52.5106 87.5299C52.5183 87.4533 52.5259 87.3767 52.5336 87.3002ZM55.5198 87.4689C55.6092 87.4936 55.6969 87.5194 55.7828 87.5464C55.6452 87.6759 55.6263 87.3448 55.4543 87.5817C55.4323 87.612 55.4114 87.6413 55.3916 87.6695C55.3827 87.6671 55.3738 87.6646 55.3648 87.6623C55.4155 87.5983 55.4673 87.5338 55.5198 87.4689ZM56.6879 87.2639C56.5735 87.3666 56.4513 87.4711 56.3275 87.5728C56.3544 87.5808 56.3947 87.5956 56.4455 87.6163C56.5266 87.4983 56.6081 87.3804 56.6879 87.2639ZM54.8797 87.318C54.9268 87.3266 54.9736 87.3355 55.0203 87.3451C54.965 87.411 54.9083 87.4778 54.8509 87.546C54.8301 87.5418 54.8093 87.538 54.7885 87.534C54.8156 87.4724 54.8461 87.401 54.8797 87.318ZM53.4397 87.2193C53.2466 87.2255 53.0539 87.2387 52.8631 87.2587C52.8729 87.3321 52.8822 87.4045 52.8926 87.4757C53.0711 87.4552 53.2517 87.4405 53.4336 87.4339C53.4357 87.3624 53.4374 87.2907 53.4397 87.2193ZM53.6667 87.2148C53.6689 87.2871 53.6701 87.3589 53.6712 87.4301C53.707 87.4301 53.7429 87.4306 53.7788 87.4312C53.7796 87.3582 53.7816 87.2865 53.7829 87.2159C53.7442 87.2154 53.7055 87.2147 53.6667 87.2148ZM50.7703 87.1226C51.4251 86.952 51.1867 85.8757 50.5574 86.5319C50.5519 86.5378 50.5467 86.5438 50.542 86.5501C50.5452 86.6519 50.5485 86.7613 50.5523 86.8775C50.6192 87.016 50.7319 87.1309 50.7703 87.1226ZM75.3772 84.5866C75.365 84.7822 75.3606 84.9527 75.3593 85.1036C75.3986 85.2251 75.4382 85.3463 75.4776 85.4667C75.6334 85.9392 75.7926 86.4362 75.8541 86.6642C75.8835 86.7575 75.8861 86.8444 75.817 86.4205C75.7961 86.2253 75.7402 85.9907 75.73 85.3641C75.6096 85.0956 75.4829 84.8316 75.3772 84.5866ZM55.9182 86.1421C55.8141 86.2388 55.6913 86.3589 55.5527 86.4966C55.5473 86.6182 55.5428 86.7 55.5373 86.7249C55.7137 86.5106 55.8638 86.3244 55.9792 86.1781C55.9591 86.1659 55.9386 86.1542 55.9182 86.1421ZM75.9154 85.804C75.9341 86.359 75.9596 86.4841 75.9627 86.6029C76.0251 86.563 76.1298 86.4972 76.0594 86.2346C76.021 86.0932 75.9714 85.949 75.9154 85.804ZM77.1655 83.1572C77.1011 83.4496 77.0462 83.7474 77.016 84.0246C77.0296 84.0745 77.0444 84.1235 77.0609 84.1707C77.0446 84.1347 77.0282 84.0985 77.0119 84.0624C76.9953 84.2255 76.9871 84.381 76.9909 84.5231C76.9434 85.9388 77.0934 86.2811 77.1072 86.4246C77.1646 86.6433 77.0607 86.2195 77.0722 86.2285C77.0954 86.1807 77.767 85.8099 77.7593 85.6638C77.7805 85.6149 77.4762 84.4257 77.1655 83.1572ZM56.7688 86.223C56.7688 86.2382 56.7691 86.2536 56.7691 86.2693C56.7801 86.2602 56.7795 86.2447 56.7688 86.223ZM76.2919 82.4678C76.2596 82.5884 76.2298 82.7047 76.2034 82.8171C76.328 83.4766 76.5026 84.3776 76.6598 85.1941C76.717 85.4905 76.7721 85.7899 76.8144 86.0303C76.8001 85.8548 76.7872 85.6203 76.7815 85.3072C76.7775 84.9425 76.8075 84.3876 76.896 83.8056C76.6974 83.366 76.4952 82.9182 76.2919 82.4678ZM56.1259 85.959C56.131 85.9617 56.136 85.9642 56.141 85.9669C56.1546 85.9484 56.1678 85.9323 56.1784 85.9172C56.1625 85.929 56.1452 85.9432 56.1259 85.959ZM76.7098 81.213C76.6023 81.4809 76.5116 81.7353 76.4348 81.9761C76.5686 82.1841 76.7854 82.114 76.8075 82.2034C76.8719 82.4718 76.8559 83.0455 76.9306 83.5903C76.948 83.4918 76.9672 83.3932 76.9882 83.2951C77.02 83.1407 77.0556 82.9928 77.0917 82.8528C76.9504 82.2715 76.8131 81.6913 76.7098 81.213ZM29.3564 80.2235C30.5689 79.317 28.1166 82.3826 28.0337 82.3852C27.9445 82.3662 28.7137 80.7089 29.3564 80.2235ZM76.0413 81.9127C76.0508 81.9834 76.0741 82.1192 76.1074 82.3029C76.1209 82.2531 76.1344 82.2024 76.1489 82.151C76.1131 82.0716 76.0771 81.9922 76.0413 81.9127ZM76.4945 80.351C76.3633 80.9115 76.3213 81.2924 76.3313 81.5531C76.4129 81.3139 76.5112 81.0616 76.6251 80.8029C76.5805 80.5745 76.5491 80.3882 76.5374 80.2619C76.5229 80.2916 76.5087 80.3214 76.4945 80.351ZM32.1188 80.9373C32.4809 80.5964 33.1885 79.8894 33.2981 80.0195C32.9643 80.383 32.5145 80.8726 32.2038 81.0155C32.1208 81.0559 32.0465 81.0739 31.9847 81.0624C32.0221 81.0289 32.0673 80.9862 32.1188 80.9373ZM36.7609 75.5896C35.7027 76.8928 36.9664 75.9479 35.7735 77.1094C35.7978 76.5826 35.9334 76.375 36.7609 75.5896ZM87.3048 75.2814C87.3964 75.2788 87.3088 75.0863 87.1121 75.2371C87.2881 75.6023 87.2173 75.5537 87.3048 75.2814ZM35.4403 74.2895C35.3428 74.4322 35.1749 74.6382 34.9651 74.8806C35.1567 75.0024 35.2881 75.0861 35.3089 75.0873C35.3781 75.0885 35.4258 74.6439 35.4403 74.2895ZM86.9171 74.2967C86.9255 74.3925 86.9622 74.4986 87.0861 74.5521C87.1023 74.5579 87.1829 74.3442 87.3744 74.3985C87.819 74.5147 87.4843 74.358 87.0011 74.3056C86.9727 74.3021 86.9447 74.2996 86.9171 74.2967ZM83.8294 74.0231C83.7296 74.0503 83.6338 74.078 83.5434 74.1054C83.6177 74.1479 83.6941 74.1911 83.7704 74.2326C83.8077 74.2233 83.8466 74.2149 83.8863 74.2048C83.9027 74.1995 83.9667 74.1857 84.0635 74.1671C83.9889 74.1199 83.91 74.0714 83.8294 74.0231ZM25.1384 68.601C25.0467 68.4278 29.9888 71.032 30.1594 71.1792C30.2604 71.281 29.8765 71.8416 29.965 71.9688C30.0012 72.0303 32.095 72.9196 32.3049 73.1039C32.3693 73.1603 32.4159 73.2084 32.4493 73.2452C32.2495 72.8967 34.0315 73.8959 33.8539 74.066C33.7867 74.1359 32.5773 73.4101 32.5449 73.3724C32.5292 73.3558 32.5171 73.3383 32.5048 73.324C32.6377 73.7012 28.5224 71.3591 29.221 72.1892C27.9198 71.6806 29.6657 71.8031 28.6697 71.4624C28.3378 71.3485 27.6385 71.8527 26.2533 70.5717C26.2519 70.5708 26.2503 70.5701 26.2489 70.5693C25.8415 70.1923 26.4715 70.3457 26.4199 70.236C26.4037 70.1954 25.1395 68.9856 26.386 69.6587C28.2644 70.6614 26.2601 70.2611 27.2363 70.847C27.3633 70.9253 29.4277 71.6346 29.3695 71.4915C29.3629 71.4755 28.758 71.2299 28.6862 71.1435C28.4129 70.8175 28.7038 70.7043 28.6611 70.6659C28.5178 70.5559 25.3584 69.1679 25.1384 68.601ZM85.9749 73.7252C86.1822 73.814 86.3773 73.8947 86.5379 73.959C86.719 73.9668 86.8195 73.9764 86.8228 73.9724C87.2763 73.9009 87.0716 73.7253 85.9749 73.7252ZM36.0564 73.5675C36.1071 73.6014 36.1416 73.6232 36.1503 73.6254C36.6358 73.7498 36.5312 73.5685 36.259 73.3576C36.1864 73.4333 36.1166 73.5058 36.0564 73.5675ZM36.0673 73.2232C35.7124 72.9924 35.2641 72.7958 35.275 72.9976C35.2862 73.0187 35.6252 73.2661 35.8784 73.444C35.9351 73.3742 35.9991 73.299 36.0673 73.2232ZM31.6501 71.1528C32.3055 72.027 33.776 72.7882 33.6941 72.0898C32.0589 71.2262 33.6532 72.6613 31.6501 71.1528ZM15.6487 63.6729C15.0788 63.163 14.6115 62.3374 15.0073 62.5065C15.1119 62.555 16.2377 63.6606 16.8823 64.0637C18.8227 65.2791 18.5452 64.6337 18.663 64.7028C18.7985 64.7815 19.8286 65.7752 20.4997 66.1921C22.1531 67.2168 23.0195 67.4968 25.1206 69.1252C23.6891 68.5421 24.1183 69.4336 22.7563 68.4042C22.9174 68.4206 23.0804 68.4377 23.2363 68.4505C21.0824 67.3234 18.8713 65.4948 16.5257 63.892C15.9339 63.486 16.3732 64.3172 15.6487 63.6729ZM26.7285 67.4826C25.7252 67.1896 27.5816 68.6715 28.0478 68.7021C28.2847 68.7231 27.1684 67.613 26.7285 67.4826ZM15.5544 60.5362C15.1666 60.14 13.6003 59.1402 14.1721 59.7757C14.2513 59.8681 15.509 60.7139 15.5544 60.5362ZM88.6306 54.7074C88.5527 54.7701 88.4756 54.8348 88.3992 54.9008C88.4762 54.8364 88.5533 54.772 88.6306 54.7074ZM18.5406 51.9441C18.138 52.2371 17.2961 52.6581 17.0657 52.7727C17.308 52.6749 17.5062 52.7531 18.9397 52.0137C18.8049 51.9899 18.6712 51.9666 18.5406 51.9441ZM93.4058 50.7582C93.4675 51.3208 93.7431 52.3278 94.0061 52.3987C93.9186 52.1208 93.7046 51.083 93.5556 50.6156C93.5059 50.663 93.4558 50.7106 93.4058 50.7582ZM18.0188 51.8601C17.613 51.7998 17.2704 51.7658 17.0606 51.7956C16.6944 51.8163 16.3732 52.1343 17.5423 51.9619C17.6816 51.9444 17.8509 51.9037 18.0188 51.8601ZM93.4428 50.3848C93.4204 50.387 93.4061 50.4147 93.3986 50.4623C93.4287 50.4598 93.449 50.4569 93.4576 50.45C93.4663 50.4424 93.4742 50.434 93.4826 50.426C93.4676 50.3986 93.4543 50.384 93.4428 50.3848ZM96.7369 46.7568C96.5503 46.8411 95.1862 48.0535 93.4911 49.6148C93.5449 49.811 93.5987 50.0073 93.6519 50.2038C93.7622 50.0205 93.8466 49.8163 93.9845 49.6912C94.3462 49.3616 94.6527 49.3209 95.1282 48.8708C95.4496 48.5673 94.8883 48.6214 95.214 48.3192C95.3169 48.2306 97.1834 47.5048 96.7369 46.7568ZM94.0709 48.7841C94.5342 48.4441 96.4794 46.4408 95.551 47.0568C95.3941 47.1713 93.9463 48.6086 94.0709 48.7841ZM89.1113 21.5908C88.2916 21.5433 87.6701 21.5413 87.5956 21.5538C86.622 21.7431 87.6135 21.8343 89.1017 21.9539C89.7854 21.9783 90.6181 22.0422 91.7001 22.2806C92.2526 22.4011 93.1578 22.6502 94.049 23.0314C95.0132 23.4594 95.8075 23.8293 97.185 24.8996C98.4346 25.8896 99.6592 27.2817 100.519 28.8533C101.363 30.3781 101.835 31.965 102.036 33.3744C102.241 34.8676 102.18 35.8052 102.104 36.6312C102.019 37.4616 101.872 38.1596 101.713 38.7572C101.165 40.6952 100.636 41.5238 100.309 42.1256C99.9175 42.796 99.717 43.0733 99.4704 43.424C98.6185 44.5871 98.243 44.9664 97.9108 45.3741C97.3239 46.0695 97.1551 46.3629 97.8182 45.876C97.8833 45.8164 98.222 45.5156 98.9726 44.6462C99.3873 44.1104 99.7924 43.8122 100.919 41.7951C101.148 41.3625 101.616 40.4162 101.966 39.2361C102.174 38.544 102.419 37.5154 102.509 36.2962C102.6 35.2591 102.579 33.0809 101.838 30.9306C101.165 28.8017 99.5655 26.394 97.7977 24.9253C97.3588 24.5479 96.9139 24.2141 96.4756 23.9215C96.1033 23.6729 95.7521 23.4634 95.4022 23.2731C94.705 22.8947 94.0477 22.6147 93.4459 22.4003C92.1683 21.9566 91.4359 21.842 90.7861 21.7382C90.1334 21.6424 89.5863 21.6054 89.1113 21.5908ZM23.3916 37.5952C23.3987 37.6908 23.4551 37.803 23.5517 37.9281C23.4984 37.8118 23.4453 37.701 23.3916 37.5952ZM12.1606 29.2874C12.0523 29.2072 11.3562 29.2293 9.55221 29.8671C8.70382 30.1924 7.26493 30.7596 5.54398 32.1375C4.8394 32.6881 3.86376 33.7116 3.48793 34.2254C3.07746 34.7727 3.06361 34.8169 3.56027 34.222C3.71565 34.0407 4.28312 33.3752 5.01188 32.7419C5.6262 32.2016 6.40329 31.6412 7.15365 31.2104C7.81227 30.8317 8.38436 30.5675 8.9392 30.342C9.42367 30.1474 9.82357 30.0123 10.2046 29.8935C11.5661 29.4856 12.1722 29.3911 12.1606 29.2874ZM38.3575 27.4788C37.7264 27.5761 36.2292 27.5879 35.9573 27.8186C36.6851 27.7238 38.5738 27.8852 38.3575 27.4788ZM45.3911 26.8847C45.3524 27.022 45.314 27.1569 45.2772 27.2845C45.3315 27.2976 45.3927 27.3066 45.4607 27.3098C45.5043 27.1708 45.5464 27.0344 45.5861 26.9025C45.5143 26.8922 45.4493 26.8862 45.3911 26.8847ZM45.0962 26.9276C44.9745 26.9808 44.9581 27.0743 45.03 27.1559C45.0505 27.0827 45.0732 27.0067 45.0962 26.9276ZM19.4344 26.7404C19.5244 26.7223 20.8345 26.737 20.8771 26.7551C21.7787 27.1137 17.4119 27.1226 19.4344 26.7404ZM20.2429 26.3228C19.9999 25.9106 22.8943 25.9355 23.1039 26.0204C24.003 26.3535 20.4985 26.213 20.2429 26.3228ZM36.4678 25.3196C45.5945 24.2952 43.6444 25.3802 35.9388 25.5695C35.9075 25.2922 35.8945 25.3822 36.4678 25.3196ZM45.8512 25.4074C45.8395 25.4338 45.8279 25.4633 45.8155 25.4951C45.8509 25.4935 45.8857 25.4919 45.9201 25.4903C45.9181 25.4136 45.8969 25.3822 45.8512 25.4074ZM54.4566 23.0678C54.4019 22.9424 54.224 22.6805 54.2807 22.9296C54.3413 23.0755 54.3353 23.2211 54.829 23.9856C54.6546 23.5067 54.5243 23.1808 54.4566 23.0678ZM54.5622 22.704C54.5939 22.7775 54.6986 23.0037 54.7628 23.0503C54.5361 22.6649 54.5619 22.6893 54.5622 22.704ZM86.962 22.007C87.8604 21.7621 86.5592 21.7093 85.2673 21.7475C85.233 21.7484 85.1986 21.7499 85.1644 21.7509C85.2133 21.9112 85.2618 22.0715 85.3094 22.2319C85.9912 22.1786 86.5846 22.1085 86.962 22.007ZM81.6516 12.2578C81.1355 11.9383 82.508 15.8823 82.423 14.74C82.4195 14.5085 81.8931 12.844 81.6516 12.2578ZM65.8062 0.0318696C67.5363 -0.070072 68.7796 0.0828879 70.0325 0.343518C71.2222 0.591824 72.4183 1.04121 73.0461 1.32749C74.4709 1.95327 75.6722 2.79494 76.2151 3.22138C78.8081 5.36685 78.9988 6.05758 79.589 6.81099C80.4515 8.11345 80.6479 8.63672 80.8788 9.14029C81.2601 10.0494 81.3059 10.3934 81.1308 10.1328C81.0815 10.0593 80.9156 9.66506 80.3944 8.69733C80.0888 8.17126 79.8476 7.6192 78.7395 6.17192C77.9996 5.40066 77.7404 4.42933 74.0685 2.19215C72.532 1.31411 67.9544 -0.731466 62.3877 0.981556C59.7952 1.78491 57.8832 3.1123 56.5089 4.40249C55.3374 5.50952 54.5811 6.54761 54.0222 7.44011C53.6765 7.92317 53.3205 8.39978 53.316 8.25129C53.3406 8.0114 53.5487 7.60318 53.7576 7.27589C54.5061 6.12404 55.2715 4.95975 57.2947 3.30778C58.2989 2.51179 59.5412 1.74094 60.9728 1.15264C62.4718 0.531135 64.1674 0.134803 65.8062 0.0318696Z"
        fill="black" />
</svg>